<?xml version="1.0" encoding="UTF-8" standalone="no"?>
<!-- Created with Inkscape (http://www.inkscape.org/) -->

<svg
   xmlns:dc="http://purl.org/dc/elements/1.1/"
   xmlns:cc="http://creativecommons.org/ns#"
   xmlns:rdf="http://www.w3.org/1999/02/22-rdf-syntax-ns#"
   xmlns:svg="http://www.w3.org/2000/svg"
   xmlns="http://www.w3.org/2000/svg"
   xmlns:sodipodi="http://sodipodi.sourceforge.net/DTD/sodipodi-0.dtd"
   xmlns:inkscape="http://www.inkscape.org/namespaces/inkscape"
   width="200mm"
   height="200mm"
   viewBox="0 0 708.66142 708.66141"
   id="svg2"
   version="1.1"
   inkscape:version="0.91 r13725"
   sodipodi:docname="giving-types.svg">
  <defs
     id="defs4" />
  <sodipodi:namedview
     id="base"
     pagecolor="#ffffff"
     bordercolor="#666666"
     borderopacity="1.0"
     inkscape:pageopacity="0.0"
     inkscape:pageshadow="2"
     inkscape:zoom="0.93303299"
     inkscape:cx="83.502012"
     inkscape:cy="403.41268"
     inkscape:document-units="px"
     inkscape:current-layer="layer1"
     showgrid="false"
     inkscape:window-width="1920"
     inkscape:window-height="1031"
     inkscape:window-x="1280"
     inkscape:window-y="0"
     inkscape:window-maximized="0" />
  <metadata
     id="metadata7">
    <rdf:RDF>
      <cc:Work
         rdf:about="">
        <dc:format>image/svg+xml</dc:format>
        <dc:type
           rdf:resource="http://purl.org/dc/dcmitype/StillImage" />
        <dc:title></dc:title>
      </cc:Work>
    </rdf:RDF>
  </metadata>
  <g
     inkscape:label="Layer 1"
     inkscape:groupmode="layer"
     id="layer1"
     transform="translate(0,-343.70079)">
    <path
       style="fill:#ffffff;fill-opacity:1;fill-rule:evenodd;stroke:none;stroke-width:1px;stroke-linecap:butt;stroke-linejoin:miter;stroke-opacity:1"
       d="M 357.83984 4.6308594 A 348.57144 348.57144 0 0 0 357.50977 4.6425781 L 357.50977 153.48242 L 458.71875 153.48242 L 458.71875 232.79492 L 305.45508 232.79492 L 305.45508 366.34375 L 16.714844 423.0293 A 348.57144 348.57144 0 0 0 357.83984 701.77539 A 348.57144 348.57144 0 0 0 706.41016 353.20312 A 348.57144 348.57144 0 0 0 357.83984 4.6308594 z "
       transform="translate(0,343.70079)"
       id="path3526" />
    <path
       style="fill:#ffffff;fill-rule:evenodd;stroke:none;stroke-width:1px;stroke-linecap:butt;stroke-linejoin:miter;stroke-opacity:1"
       d="M 357.28125 4.6308594 A 348.57144 348.57144 0 0 0 327.58789 6.1152344 A 348.57144 348.57144 0 0 1 357.28125 4.6308594 z M 386.06055 6.0722656 A 348.57144 348.57144 0 0 1 405.42188 8.3886719 A 348.57144 348.57144 0 0 0 386.06055 6.0722656 z M 310.23828 8.2226562 A 348.57144 348.57144 0 0 0 293.09375 10.8125 A 348.57144 348.57144 0 0 1 310.23828 8.2226562 z M 420.03711 10.597656 A 348.57144 348.57144 0 0 1 440.76758 15.212891 A 348.57144 348.57144 0 0 0 420.03711 10.597656 z M 276.03125 14.642578 A 348.57144 348.57144 0 0 0 259.22656 18.935547 A 348.57144 348.57144 0 0 1 276.03125 14.642578 z M 453.41406 18.441406 A 348.57144 348.57144 0 0 1 475.23828 25.652344 A 348.57144 348.57144 0 0 0 453.41406 18.441406 z M 242.6582 24.439453 A 348.57144 348.57144 0 0 0 226.33984 30.396484 A 348.57144 348.57144 0 0 1 242.6582 24.439453 z M 485.85742 29.529297 A 348.57144 348.57144 0 0 1 508.39648 39.570312 A 348.57144 348.57144 0 0 0 485.85742 29.529297 z M 210.42578 37.517578 A 348.57144 348.57144 0 0 0 194.75781 45.087891 A 348.57144 348.57144 0 0 1 210.42578 37.517578 z M 517.08594 43.769531 A 348.57144 348.57144 0 0 1 539.88867 56.798828 A 348.57144 348.57144 0 0 0 517.08594 43.769531 z M 179.62695 53.767578 A 348.57144 348.57144 0 0 0 164.83008 62.837891 A 348.57144 348.57144 0 0 1 179.62695 53.767578 z M 546.77734 61.021484 A 348.57144 348.57144 0 0 1 569.4082 77.148438 A 348.57144 348.57144 0 0 0 546.77734 61.021484 z M 150.61719 73.001953 A 348.57144 348.57144 0 0 0 136.78711 83.515625 A 348.57144 348.57144 0 0 1 150.61719 73.001953 z M 574.65625 81.136719 A 348.57144 348.57144 0 0 1 596.61133 100.35938 A 348.57144 348.57144 0 0 0 574.65625 81.136719 z M 123.70117 95.009766 A 348.57144 348.57144 0 0 0 110.96289 106.87891 A 348.57144 348.57144 0 0 1 123.70117 95.009766 z M 600.44141 103.92773 A 348.57144 348.57144 0 0 1 621.22852 126.16406 A 348.57144 348.57144 0 0 0 600.44141 103.92773 z M 623.88477 129.1875 A 348.57144 348.57144 0 0 1 643.05078 154.3125 A 348.57144 348.57144 0 0 0 623.88477 129.1875 z M 644.73047 156.66016 A 348.57144 348.57144 0 0 1 661.8125 184.41602 A 348.57144 348.57144 0 0 0 644.73047 156.66016 z M 662.78906 186.11914 A 348.57144 348.57144 0 0 1 677.40039 216.24414 A 348.57144 348.57144 0 0 0 662.78906 186.11914 z M 677.8457 217.23828 A 348.57144 348.57144 0 0 1 689.60547 249.27734 A 348.57144 348.57144 0 0 0 677.8457 217.23828 z M 8.7148438 353.20312 A 348.57144 348.57144 0 0 0 10.203125 382.92383 A 348.57144 348.57144 0 0 1 8.7148438 353.20312 z M 12.298828 400.18359 A 348.57144 348.57144 0 0 0 14.904297 417.42188 A 348.57144 348.57144 0 0 1 12.298828 400.18359 z M 18.716797 434.40625 A 348.57144 348.57144 0 0 0 23.021484 451.27148 A 348.57144 348.57144 0 0 1 18.716797 434.40625 z M 28.521484 467.82422 A 348.57144 348.57144 0 0 0 34.480469 484.14844 A 348.57144 348.57144 0 0 1 28.521484 467.82422 z M 41.601562 500.0625 A 348.57144 348.57144 0 0 0 49.171875 515.73242 A 348.57144 348.57144 0 0 1 41.601562 500.0625 z M 57.839844 530.8418 A 348.57144 348.57144 0 0 0 66.931641 545.67188 A 348.57144 348.57144 0 0 1 57.839844 530.8418 z M 77.0625 559.83984 A 348.57144 348.57144 0 0 0 87.609375 573.71289 A 348.57144 348.57144 0 0 1 77.0625 559.83984 z M 99.083984 586.77539 A 348.57144 348.57144 0 0 0 110.96289 599.52539 A 348.57144 348.57144 0 0 1 99.083984 586.77539 z M 123.70117 611.39453 A 348.57144 348.57144 0 0 0 136.78516 622.88672 A 348.57144 348.57144 0 0 1 123.70117 611.39453 z M 150.66406 633.4375 A 348.57144 348.57144 0 0 0 164.79492 643.54297 A 348.57144 348.57144 0 0 1 150.66406 633.4375 z M 179.65625 652.65625 A 348.57144 348.57144 0 0 0 194.76953 661.32422 A 348.57144 348.57144 0 0 1 179.65625 652.65625 z M 210.44336 668.89453 A 348.57144 348.57144 0 0 0 226.31055 675.99609 A 348.57144 348.57144 0 0 1 210.44336 668.89453 z M 242.74609 681.99609 A 348.57144 348.57144 0 0 0 259.18945 687.45898 A 348.57144 348.57144 0 0 1 242.74609 681.99609 z M 276.10938 691.78125 A 348.57144 348.57144 0 0 0 293.06641 695.58594 A 348.57144 348.57144 0 0 1 276.10938 691.78125 z M 310.31055 698.19336 A 348.57144 348.57144 0 0 0 327.55859 700.28711 A 348.57144 348.57144 0 0 1 310.31055 698.19336 z "
       transform="translate(0,343.70079)"
       id="path3336" />
    <rect
       style="fill:#ffffff"
       id="rect4369"
       width="51.445126"
       height="299.02481"
       x="327.96268"
       y="-1004.1324"
       transform="scale(1,-1)" />
    <path
       style="fill:#8aa534;fill-opacity:1;fill-rule:evenodd;stroke:none;stroke-width:1px;stroke-linecap:butt;stroke-linejoin:miter;stroke-opacity:1"
       d="M 357.28516 4.6308594 A 348.57144 348.57144 0 0 0 8.7148438 353.20312 A 348.57144 348.57144 0 0 0 357.28516 701.77539 A 348.57144 348.57144 0 0 0 357.61523 701.76367 L 357.61523 405.12305 L 357.28516 350.3457 L 698.41016 283.37695 A 348.57144 348.57144 0 0 0 357.28516 4.6308594 z M 163.875 183.10938 L 172.66406 183.10938 L 172.66406 221.09766 L 163.875 221.09766 L 163.875 217.14258 C 162.67057 218.75391 161.34505 219.9349 159.89648 220.68359 C 158.44792 221.43229 156.77148 221.80664 154.86719 221.80664 C 151.49805 221.80664 148.73112 220.47201 146.56641 217.80273 C 144.40169 215.11719 143.31836 211.66667 143.31836 207.45117 C 143.31836 203.23568 144.40169 199.79232 146.56641 197.12305 C 148.73112 194.4375 151.49805 193.0957 154.86719 193.0957 C 156.75521 193.0957 158.42253 193.47721 159.87109 194.24219 C 161.33594 194.99089 162.67057 196.16276 163.875 197.75781 L 163.875 183.10938 z M 181.11133 183.10938 L 189.85156 183.10938 L 189.85156 190.23828 L 181.11133 190.23828 L 181.11133 183.10938 z M 230.91602 183.10938 L 239.65625 183.10938 L 239.65625 190.23828 L 230.91602 190.23828 L 230.91602 183.10938 z M 266.70703 183.10938 L 275.49609 183.10938 L 275.49609 221.09766 L 266.70703 221.09766 L 266.70703 217.14258 C 265.5026 218.75391 264.17708 219.9349 262.72852 220.68359 C 261.27995 221.43229 259.60352 221.80664 257.69922 221.80664 C 254.33008 221.80664 251.56315 220.47201 249.39844 217.80273 C 247.23372 215.11719 246.15039 211.66667 246.15039 207.45117 C 246.15039 203.23568 247.23372 199.79232 249.39844 197.12305 C 251.56315 194.4375 254.33008 193.0957 257.69922 193.0957 C 259.58724 193.0957 261.25457 193.47721 262.70312 194.24219 C 264.16798 194.99089 265.5026 196.16276 266.70703 197.75781 L 266.70703 183.10938 z M 353.2793 183.10938 L 362.01953 183.10938 L 362.01953 221.09766 L 353.2793 221.09766 L 353.2793 183.10938 z M 91.462891 184.64844 L 100.86328 184.64844 L 100.86328 221.09766 L 91.462891 221.09766 L 91.462891 184.64844 z M 127.47461 193.0957 C 130.63216 193.0957 133.02474 194.06315 134.65234 196 C 136.29622 197.93685 137.11719 200.7526 137.11719 204.44727 L 137.11719 221.09766 L 128.32812 221.09766 L 128.32812 218.38867 L 128.32812 208.35352 C 128.32812 205.99349 128.27214 204.36589 128.1582 203.4707 C 128.06055 202.57552 127.88151 201.91732 127.62109 201.49414 C 127.2793 200.92448 126.81445 200.48503 126.22852 200.17578 C 125.64258 199.85026 124.97526 199.6875 124.22656 199.6875 C 122.40365 199.6875 120.97135 200.39453 119.92969 201.81055 C 118.88802 203.21029 118.36719 205.15625 118.36719 207.64648 L 118.36719 221.09766 L 109.62695 221.09766 L 109.62695 193.75391 L 118.36719 193.75391 L 118.36719 197.75781 C 119.68555 196.16276 121.08529 194.99089 122.56641 194.24219 C 124.04753 193.47721 125.68424 193.0957 127.47461 193.0957 z M 331.23438 193.0957 C 336.16602 193.0957 339.72135 194.07227 341.90234 196.02539 C 344.09961 197.96224 345.19922 201.11979 345.19922 205.49805 L 345.19922 221.09766 L 336.38477 221.09766 L 336.38477 217.04492 C 335.21289 218.70508 333.89453 219.91862 332.42969 220.68359 C 330.96484 221.43229 329.18359 221.80664 327.08398 221.80664 C 324.25195 221.80664 321.94792 220.98372 320.17383 219.33984 C 318.41602 217.67969 317.53711 215.53125 317.53711 212.89453 C 317.53711 209.68815 318.63672 207.33724 320.83398 205.83984 C 323.04753 204.34245 326.51432 203.59375 331.23438 203.59375 L 336.38477 203.59375 L 336.38477 202.91016 C 336.38477 201.52669 335.84049 200.51758 334.75 199.88281 C 333.65951 199.23177 331.95768 198.90625 329.64648 198.90625 C 327.77474 198.90625 326.0332 199.09245 324.42188 199.4668 C 322.81054 199.84115 321.31315 200.40365 319.92969 201.15234 L 319.92969 194.48633 C 321.80143 194.0306 323.68229 193.6888 325.57031 193.46094 C 327.45833 193.2168 329.34635 193.0957 331.23438 193.0957 z M 181.11133 193.75391 L 189.85156 193.75391 L 189.85156 221.09766 L 181.11133 221.09766 L 181.11133 193.75391 z M 194.85742 193.75391 L 203.59766 193.75391 L 210.4082 212.65039 L 217.19531 193.75391 L 225.96094 193.75391 L 215.19336 221.09766 L 205.59961 221.09766 L 194.85742 193.75391 z M 230.91602 193.75391 L 239.65625 193.75391 L 239.65625 221.09766 L 230.91602 221.09766 L 230.91602 193.75391 z M 283.65039 193.75391 L 292.43945 193.75391 L 292.43945 196.48828 C 292.43945 197.9694 292.43229 199.83398 292.41602 202.08008 C 292.39974 204.3099 292.39062 205.79818 292.39062 206.54688 C 292.39062 208.74413 292.44857 210.33203 292.5625 211.30859 C 292.67643 212.26888 292.87174 212.96875 293.14844 213.4082 C 293.50651 213.97786 293.9694 214.41732 294.53906 214.72656 C 295.125 215.03581 295.79232 215.18945 296.54102 215.18945 C 298.36393 215.18945 299.79622 214.48958 300.83789 213.08984 C 301.87956 211.6901 302.40039 209.74609 302.40039 207.25586 L 302.40039 193.75391 L 311.14062 193.75391 L 311.14062 221.09766 L 302.40039 221.09766 L 302.40039 217.14258 C 301.08203 218.73763 299.68229 219.91862 298.20117 220.68359 C 296.73633 221.43229 295.11784 221.80664 293.34375 221.80664 C 290.1862 221.80664 287.77734 220.83724 286.11719 218.90039 C 284.47331 216.96354 283.65039 214.14779 283.65039 210.45312 L 283.65039 193.75391 z M 158.11328 199.44336 C 156.25781 199.44336 154.83464 200.12695 153.8418 201.49414 C 152.86523 202.86133 152.37695 204.84701 152.37695 207.45117 C 152.37695 210.05534 152.86523 212.04102 153.8418 213.4082 C 154.83464 214.77539 156.25781 215.45898 158.11328 215.45898 C 159.98503 215.45898 161.41016 214.77539 162.38672 213.4082 C 163.37956 212.04102 163.875 210.05534 163.875 207.45117 C 163.875 204.84701 163.37956 202.86133 162.38672 201.49414 C 161.41016 200.12695 159.98503 199.44336 158.11328 199.44336 z M 260.94531 199.44336 C 259.08984 199.44336 257.66667 200.12695 256.67383 201.49414 C 255.69727 202.86133 255.20898 204.84701 255.20898 207.45117 C 255.20898 210.05534 255.69727 212.04102 256.67383 213.4082 C 257.66667 214.77539 259.08984 215.45898 260.94531 215.45898 C 262.81706 215.45898 264.24219 214.77539 265.21875 213.4082 C 266.21159 212.04102 266.70703 210.05534 266.70703 207.45117 C 266.70703 204.84701 266.21159 202.86133 265.21875 201.49414 C 264.24219 200.12695 262.81706 199.44336 260.94531 199.44336 z M 331.84375 208.79297 C 330.02083 208.79297 328.64648 209.10221 327.71875 209.7207 C 326.80729 210.33919 326.35156 211.25065 326.35156 212.45508 C 326.35156 213.56185 326.7168 214.43359 327.44922 215.06836 C 328.19792 215.68685 329.23242 215.99609 330.55078 215.99609 C 332.19466 215.99609 333.57812 215.41016 334.70117 214.23828 C 335.82422 213.05013 336.38477 211.56901 336.38477 209.79492 L 336.38477 208.79297 L 331.84375 208.79297 z M 132.08789 245.60938 L 140.82812 245.60938 L 140.82812 252.73828 L 132.08789 252.73828 L 132.08789 245.60938 z M 181.89258 245.60938 L 190.63281 245.60938 L 190.63281 252.73828 L 181.89258 252.73828 L 181.89258 245.60938 z M 109.62695 246.48828 C 112.05208 246.48828 114.3724 246.71615 116.58594 247.17188 C 118.81576 247.6276 120.91536 248.30404 122.88477 249.19922 L 122.88477 256.74219 C 120.85026 255.58659 118.82292 254.72396 116.80469 254.1543 C 114.80273 253.58464 112.79362 253.30078 110.77539 253.30078 C 107.0319 253.30078 104.14193 254.34961 102.10742 256.44922 C 100.08919 258.53255 99.080078 261.52018 99.080078 265.41016 C 99.080078 269.26758 100.05664 272.24609 102.00977 274.3457 C 103.96289 276.44531 106.73893 277.49414 110.33594 277.49414 C 111.3125 277.49414 112.21484 277.43815 113.04492 277.32422 C 113.89128 277.19401 114.64909 276.9987 115.31641 276.73828 L 115.31641 269.6582 L 109.57812 269.6582 L 109.57812 263.35938 L 124.22656 263.35938 L 124.22656 280.88867 C 121.88281 282.02799 119.45052 282.88151 116.92773 283.45117 C 114.40495 284.02083 111.80078 284.30664 109.11523 284.30664 C 103.04427 284.30664 98.233724 282.61393 94.685547 279.22852 C 91.13737 275.82682 89.363281 271.2207 89.363281 265.41016 C 89.363281 259.53451 91.169922 254.91211 94.783203 251.54297 C 98.396484 248.17383 103.3444 246.48828 109.62695 246.48828 z M 216.92773 255.5957 C 220.08529 255.5957 222.47786 256.56315 224.10547 258.5 C 225.74935 260.43685 226.57031 263.2526 226.57031 266.94727 L 226.57031 283.59766 L 217.78125 283.59766 L 217.78125 280.88867 L 217.78125 270.85352 C 217.78125 268.49349 217.72526 266.86589 217.61133 265.9707 C 217.51367 265.07552 217.33464 264.41732 217.07422 263.99414 C 216.73242 263.42448 216.26758 262.98503 215.68164 262.67578 C 215.0957 262.35026 214.42839 262.1875 213.67969 262.1875 C 211.85677 262.1875 210.42448 262.89453 209.38281 264.31055 C 208.34115 265.71029 207.82031 267.65625 207.82031 270.14648 L 207.82031 283.59766 L 199.08008 283.59766 L 199.08008 256.25391 L 207.82031 256.25391 L 207.82031 260.25781 C 209.13867 258.66276 210.53841 257.49089 212.01953 256.74219 C 213.50065 255.97721 215.13737 255.5957 216.92773 255.5957 z M 244.32031 255.64453 C 246.22461 255.64453 247.90104 256.01888 249.34961 256.76758 C 250.79818 257.51628 252.12371 258.69531 253.32812 260.30664 L 253.32812 256.25391 L 262.11719 256.25391 L 262.11719 280.83984 C 262.11719 285.23438 260.72656 288.58724 257.94336 290.89844 C 255.17643 293.22591 251.15625 294.38867 245.88281 294.38867 C 244.17383 294.38867 242.52083 294.25846 240.92578 293.99805 C 239.33073 293.73763 237.72852 293.33984 236.11719 292.80273 L 236.11719 285.99023 C 237.64714 286.86914 239.14453 287.52018 240.60938 287.94336 C 242.07422 288.38281 243.54622 288.60352 245.02734 288.60352 C 247.89193 288.60352 249.99154 287.97591 251.32617 286.72266 C 252.66081 285.4694 253.32813 283.50911 253.32812 280.83984 L 253.32812 278.95898 C 252.12371 280.55404 250.79818 281.72591 249.34961 282.47461 C 247.90104 283.22331 246.22461 283.59766 244.32031 283.59766 C 240.98372 283.59766 238.22396 282.28841 236.04297 279.66797 C 233.86198 277.03125 232.77148 273.67839 232.77148 269.60938 C 232.77148 265.52409 233.86198 262.17839 236.04297 259.57422 C 238.22396 256.95378 240.98372 255.64453 244.32031 255.64453 z M 132.08789 256.25391 L 140.82812 256.25391 L 140.82812 283.59766 L 132.08789 283.59766 L 132.08789 256.25391 z M 145.83398 256.25391 L 154.57422 256.25391 L 161.38477 275.15039 L 168.17188 256.25391 L 176.9375 256.25391 L 166.16992 283.59766 L 156.57617 283.59766 L 145.83398 256.25391 z M 181.89258 256.25391 L 190.63281 256.25391 L 190.63281 283.59766 L 181.89258 283.59766 L 181.89258 256.25391 z M 247.56641 261.94336 C 245.75977 261.94336 244.35286 262.61068 243.34375 263.94531 C 242.33464 265.27995 241.83008 267.16796 241.83008 269.60938 C 241.83008 272.11588 242.31836 274.02018 243.29492 275.32227 C 244.27148 276.60807 245.69466 277.25 247.56641 277.25 C 249.38932 277.25 250.80534 276.58268 251.81445 275.24805 C 252.82357 273.91341 253.32813 272.0345 253.32812 269.60938 C 253.32812 267.16797 252.82357 265.27995 251.81445 263.94531 C 250.80534 262.61068 249.38932 261.94336 247.56641 261.94336 z "
       id="circle3342"
       transform="translate(0,343.70079)" />
    <g
       transform="matrix(0.9,0,0,0.9,307.0373,416.27943)"
       style="font-style:normal;font-weight:normal;font-size:50px;line-height:125%;font-family:sans-serif;letter-spacing:0px;word-spacing:0px;fill:#afc2cf;fill-opacity:1;stroke:none;stroke-width:1px;stroke-linecap:butt;stroke-linejoin:miter;stroke-opacity:1"
       id="flowRoot3400">
      <path
         d="m 134.51172,366.82769 q -2.58789,1.34278 -5.39551,2.02637 -2.80762,0.68359 -5.85937,0.68359 -9.10645,0 -14.42871,-5.07812 -5.32227,-5.10254 -5.32227,-13.81836 0,-8.74024 5.32227,-13.81836 5.32226,-5.10254 14.42871,-5.10254 3.05175,0 5.85937,0.68359 2.80762,0.6836 5.39551,2.02637 l 0,7.54395 q -2.61231,-1.78223 -5.15137,-2.61231 -2.53906,-0.83008 -5.34668,-0.83008 -5.02929,0 -7.91015,3.22266 -2.88086,3.22266 -2.88086,8.88672 0,5.63965 2.88086,8.8623 2.88086,3.22266 7.91015,3.22266 2.80762,0 5.34668,-0.83008 2.53906,-0.83008 5.15137,-2.6123 l 0,7.54394 z"
         style="font-style:normal;font-variant:normal;font-weight:bold;font-stretch:normal;font-size:50px;font-family:sans-serif;-inkscape-font-specification:'sans-serif Bold';fill:#afc2cf;fill-opacity:1"
         id="path3420"
         inkscape:connector-curvature="0" />
      <path
         d="m 154.84863,347.07672 q -2.90527,0 -4.44336,2.09961 -1.51367,2.07519 -1.51367,6.00585 0,3.93067 1.51367,6.03028 1.53809,2.07519 4.44336,2.07519 2.85645,0 4.37012,-2.07519 1.51367,-2.09961 1.51367,-6.03028 0,-3.93066 -1.51367,-6.00585 -1.51367,-2.09961 -4.37012,-2.09961 z m 0,-6.25 q 7.05567,0 11.01074,3.80859 3.9795,3.80859 3.9795,10.54687 0,6.73829 -3.9795,10.54688 -3.95507,3.80859 -11.01074,3.80859 -7.08008,0 -11.08398,-3.80859 -3.97949,-3.80859 -3.97949,-10.54688 0,-6.73828 3.97949,-10.54687 4.0039,-3.80859 11.08398,-3.80859 z"
         style="font-style:normal;font-variant:normal;font-weight:bold;font-stretch:normal;font-size:50px;font-family:sans-serif;-inkscape-font-specification:'sans-serif Bold';fill:#afc2cf;fill-opacity:1"
         id="path3422"
         inkscape:connector-curvature="0" />
      <path
         d="m 196.52344,348.93218 q -1.14746,-0.5371 -2.29492,-0.78125 -1.12305,-0.26855 -2.27051,-0.26855 -3.36914,0 -5.2002,2.17285 -1.80664,2.14844 -1.80664,6.17676 l 0,12.59766 -8.74023,0 0,-27.34375 8.74023,0 0,4.49218 q 1.68457,-2.68554 3.85742,-3.90625 2.19727,-1.24511 5.24903,-1.24511 0.43945,0 0.95215,0.0488 0.51269,0.0244 1.48925,0.14649 l 0.0244,7.91015 z"
         style="font-style:normal;font-variant:normal;font-weight:bold;font-stretch:normal;font-size:50px;font-family:sans-serif;-inkscape-font-specification:'sans-serif Bold';fill:#afc2cf;fill-opacity:1"
         id="path3424"
         inkscape:connector-curvature="0" />
      <path
         d="m 209.6582,364.87457 0,14.35547 -8.74023,0 0,-37.74414 8.74023,0 0,4.0039 q 1.80664,-2.39258 4.00391,-3.51562 2.19726,-1.14746 5.05371,-1.14746 5.05371,0 8.30078,4.02832 3.24707,4.0039 3.24707,10.32714 0,6.32325 -3.24707,10.35157 -3.24707,4.0039 -8.30078,4.0039 -2.85645,0 -5.05371,-1.12304 -2.19727,-1.14746 -4.00391,-3.54004 z m 5.81055,-17.7002 q -2.80762,0 -4.32129,2.0752 -1.48926,2.05078 -1.48926,5.93261 0,3.88184 1.48926,5.95704 1.51367,2.05078 4.32129,2.05078 2.80762,0 4.27246,-2.05078 1.48926,-2.05079 1.48926,-5.95704 0,-3.90625 -1.48926,-5.95703 -1.46484,-2.05078 -4.27246,-2.05078 z"
         style="font-style:normal;font-variant:normal;font-weight:bold;font-stretch:normal;font-size:50px;font-family:sans-serif;-inkscape-font-specification:'sans-serif Bold';fill:#afc2cf;fill-opacity:1"
         id="path3426"
         inkscape:connector-curvature="0" />
      <path
         d="m 249.77051,347.07672 q -2.90528,0 -4.44336,2.09961 -1.51367,2.07519 -1.51367,6.00585 0,3.93067 1.51367,6.03028 1.53808,2.07519 4.44336,2.07519 2.85644,0 4.37011,-2.07519 1.51368,-2.09961 1.51368,-6.03028 0,-3.93066 -1.51368,-6.00585 -1.51367,-2.09961 -4.37011,-2.09961 z m 0,-6.25 q 7.05566,0 11.01074,3.80859 3.97949,3.80859 3.97949,10.54687 0,6.73829 -3.97949,10.54688 -3.95508,3.80859 -11.01074,3.80859 -7.08008,0 -11.08399,-3.80859 -3.97949,-3.80859 -3.97949,-10.54688 0,-6.73828 3.97949,-10.54687 4.00391,-3.80859 11.08399,-3.80859 z"
         style="font-style:normal;font-variant:normal;font-weight:bold;font-stretch:normal;font-size:50px;font-family:sans-serif;-inkscape-font-specification:'sans-serif Bold';fill:#afc2cf;fill-opacity:1"
         id="path3428"
         inkscape:connector-curvature="0" />
      <path
         d="m 291.44531,348.93218 q -1.14746,-0.5371 -2.29492,-0.78125 -1.12305,-0.26855 -2.27051,-0.26855 -3.36914,0 -5.20019,2.17285 -1.80664,2.14844 -1.80664,6.17676 l 0,12.59766 -8.74024,0 0,-27.34375 8.74024,0 0,4.49218 q 1.68457,-2.68554 3.85742,-3.90625 2.19726,-1.24511 5.24902,-1.24511 0.43946,0 0.95215,0.0488 0.5127,0.0244 1.48926,0.14649 l 0.0244,7.91015 z"
         style="font-style:normal;font-variant:normal;font-weight:bold;font-stretch:normal;font-size:50px;font-family:sans-serif;-inkscape-font-specification:'sans-serif Bold';fill:#afc2cf;fill-opacity:1"
         id="path3430"
         inkscape:connector-curvature="0" />
      <path
         d="m 308.0957,356.52496 q -2.73437,0 -4.12597,0.92773 -1.36719,0.92774 -1.36719,2.73438 0,1.66015 1.09863,2.6123 1.12305,0.92774 3.10059,0.92774 2.46582,0 4.15039,-1.75782 1.68457,-1.78222 1.68457,-4.44336 l 0,-1.00097 -4.54102,0 z m 13.3545,-3.2959 0,15.60059 -8.81348,0 0,-4.05274 q -1.75781,2.49024 -3.95508,3.6377 -2.19727,1.12304 -5.34668,1.12304 -4.24805,0 -6.90918,-2.46582 -2.63672,-2.49023 -2.63672,-6.44531 0,-4.80957 3.2959,-7.05566 3.32031,-2.2461 10.40039,-2.2461 l 5.15137,0 0,-0.68359 q 0,-2.0752 -1.63574,-3.02734 -1.63575,-0.97657 -5.10254,-0.97657 -2.80762,0 -5.22461,0.56153 -2.41699,0.56152 -4.49219,1.68457 l 0,-6.66504 q 2.80762,-0.6836 5.63965,-1.02539 2.83203,-0.36621 5.66406,-0.36621 7.39746,0 10.66895,2.92968 3.2959,2.90528 3.2959,9.47266 z"
         style="font-style:normal;font-variant:normal;font-weight:bold;font-stretch:normal;font-size:50px;font-family:sans-serif;-inkscape-font-specification:'sans-serif Bold';fill:#afc2cf;fill-opacity:1"
         id="path3432"
         inkscape:connector-curvature="0" />
      <path
         d="m 339.07715,333.72222 0,7.76368 9.00879,0 0,6.25 -9.00879,0 0,11.59668 q 0,1.90429 0.75683,2.58789 0.75684,0.65918 3.00293,0.65918 l 4.49219,0 0,6.25 -7.49512,0 q -5.17578,0 -7.34863,-2.14844 -2.14844,-2.17285 -2.14844,-7.34863 l 0,-11.59668 -4.3457,0 0,-6.25 4.3457,0 0,-7.76368 8.74024,0 z"
         style="font-style:normal;font-variant:normal;font-weight:bold;font-stretch:normal;font-size:50px;font-family:sans-serif;-inkscape-font-specification:'sans-serif Bold';fill:#afc2cf;fill-opacity:1"
         id="path3434"
         inkscape:connector-curvature="0" />
      <path
         d="m 380.75195,355.08453 0,2.49023 -20.43457,0 q 0.31739,3.07617 2.22168,4.61426 1.9043,1.53809 5.32227,1.53809 2.75879,0 5.63965,-0.80567 2.90527,-0.83008 5.95703,-2.49023 l 0,6.73828 q -3.10059,1.17187 -6.20117,1.75781 -3.10059,0.61035 -6.20118,0.61035 -7.42187,0 -11.54785,-3.75976 -4.10156,-3.78418 -4.10156,-10.59571 0,-6.68945 4.02832,-10.52246 4.05273,-3.833 11.13281,-3.833 6.44532,0 10.30274,3.88183 3.88183,3.88184 3.88183,10.37598 z m -8.98437,-2.90528 q 0,-2.49023 -1.46485,-4.0039 -1.44043,-1.53809 -3.78418,-1.53809 -2.53906,0 -4.12597,1.44043 -1.58692,1.41602 -1.97754,4.10156 l 11.35254,0 z"
         style="font-style:normal;font-variant:normal;font-weight:bold;font-stretch:normal;font-size:50px;font-family:sans-serif;-inkscape-font-specification:'sans-serif Bold';fill:#afc2cf;fill-opacity:1"
         id="path3436"
         inkscape:connector-curvature="0" />
      <path
         d="m 117.4707,419.02496 q -2.73437,0 -4.12597,0.92773 -1.36719,0.92774 -1.36719,2.73438 0,1.66015 1.09863,2.6123 1.12305,0.92774 3.10059,0.92774 2.46582,0 4.15039,-1.75782 1.68457,-1.78222 1.68457,-4.44336 l 0,-1.00097 -4.54102,0 z m 13.3545,-3.2959 0,15.60059 -8.81348,0 0,-4.05274 q -1.75781,2.49024 -3.95508,3.6377 -2.19726,1.12304 -5.34668,1.12304 -4.24805,0 -6.90918,-2.46582 -2.63672,-2.49023 -2.63672,-6.44531 0,-4.80957 3.2959,-7.05566 3.32031,-2.2461 10.40039,-2.2461 l 5.15137,0 0,-0.68359 q 0,-2.0752 -1.63574,-3.02734 -1.63575,-0.97657 -5.10254,-0.97657 -2.80762,0 -5.22461,0.56153 -2.41699,0.56152 -4.49219,1.68457 l 0,-6.66504 q 2.80762,-0.6836 5.63965,-1.02539 2.83203,-0.36621 5.66406,-0.36621 7.39746,0 10.66895,2.92968 3.2959,2.90528 3.2959,9.47266 z"
         style="font-style:normal;font-variant:normal;font-weight:bold;font-stretch:normal;font-size:50px;font-family:sans-serif;-inkscape-font-specification:'sans-serif Bold';fill:#afc2cf;fill-opacity:1"
         id="path3438"
         inkscape:connector-curvature="0" />
      <path
         d="m 166.39648,414.67925 0,16.6504 -8.78906,0 0,-2.70997 0,-10.03418 q 0,-3.54003 -0.1709,-4.88281 -0.14648,-1.34277 -0.53711,-1.97754 -0.51269,-0.85449 -1.3916,-1.31836 -0.8789,-0.48828 -2.00195,-0.48828 -2.73438,0 -4.29688,2.12403 -1.5625,2.09961 -1.5625,5.83496 l 0,13.45215 -8.74023,0 0,-27.34375 8.74023,0 0,4.0039 q 1.97754,-2.39258 4.19922,-3.51562 2.22168,-1.14746 4.90723,-1.14746 4.73633,0 7.17773,2.90527 2.46582,2.90527 2.46582,8.44726 z"
         style="font-style:normal;font-variant:normal;font-weight:bold;font-stretch:normal;font-size:50px;font-family:sans-serif;-inkscape-font-specification:'sans-serif Bold';fill:#afc2cf;fill-opacity:1"
         id="path3440"
         inkscape:connector-curvature="0" />
      <path
         d="m 193.1543,407.9898 0,-14.64844 8.78906,0 0,37.98829 -8.78906,0 0,-3.95508 q -1.80664,2.41699 -3.9795,3.54004 -2.17285,1.12304 -5.02929,1.12304 -5.05371,0 -8.30078,-4.0039 -3.24707,-4.02832 -3.24707,-10.35157 0,-6.32324 3.24707,-10.32714 3.24707,-4.02832 8.30078,-4.02832 2.83203,0 5.00488,1.14746 2.19727,1.12304 4.00391,3.51562 z m -5.76172,17.7002 q 2.80762,0 4.27246,-2.05078 1.48926,-2.05079 1.48926,-5.95704 0,-3.90625 -1.48926,-5.95703 -1.46484,-2.05078 -4.27246,-2.05078 -2.78321,0 -4.27246,2.05078 -1.46485,2.05078 -1.46485,5.95703 0,3.90625 1.46485,5.95704 1.48925,2.05078 4.27246,2.05078 z"
         style="font-style:normal;font-variant:normal;font-weight:bold;font-stretch:normal;font-size:50px;font-family:sans-serif;-inkscape-font-specification:'sans-serif Bold';fill:#afc2cf;fill-opacity:1"
         id="path3442"
         inkscape:connector-curvature="0" />
      <path
         d="m 244.81445,401.03179 q -4.29687,0 -6.66504,3.17383 -2.36816,3.17383 -2.36816,8.93555 0,5.7373 2.36816,8.91113 2.36817,3.17383 6.66504,3.17383 4.32129,0 6.68946,-3.17383 2.36816,-3.17383 2.36816,-8.91113 0,-5.76172 -2.36816,-8.93555 -2.36817,-3.17383 -6.68946,-3.17383 z m 0,-6.81152 q 8.78907,0 13.76953,5.0293 4.98047,5.02929 4.98047,13.8916 0,8.83789 -4.98047,13.86719 -4.98046,5.02929 -13.76953,5.02929 -8.76465,0 -13.76953,-5.02929 -4.98047,-5.0293 -4.98047,-13.86719 0,-8.86231 4.98047,-13.8916 5.00488,-5.0293 13.76953,-5.0293 z"
         style="font-style:normal;font-variant:normal;font-weight:bold;font-stretch:normal;font-size:50px;font-family:sans-serif;-inkscape-font-specification:'sans-serif Bold';fill:#afc2cf;fill-opacity:1"
         id="path3444"
         inkscape:connector-curvature="0" />
      <path
         d="m 279.7998,396.22222 0,7.76368 9.00879,0 0,6.25 -9.00879,0 0,11.59668 q 0,1.90429 0.75684,2.58789 0.75684,0.65918 3.00293,0.65918 l 4.49219,0 0,6.25 -7.49512,0 q -5.17578,0 -7.34863,-2.14844 -2.14844,-2.17285 -2.14844,-7.34863 l 0,-11.59668 -4.3457,0 0,-6.25 4.3457,0 0,-7.76368 8.74023,0 z"
         style="font-style:normal;font-variant:normal;font-weight:bold;font-stretch:normal;font-size:50px;font-family:sans-serif;-inkscape-font-specification:'sans-serif Bold';fill:#afc2cf;fill-opacity:1"
         id="path3446"
         inkscape:connector-curvature="0" />
      <path
         d="m 321.66992,414.67925 0,16.6504 -8.78906,0 0,-2.70997 0,-9.98535 q 0,-3.58886 -0.1709,-4.93164 -0.14648,-1.34277 -0.53711,-1.97754 -0.51269,-0.85449 -1.3916,-1.31836 -0.87891,-0.48828 -2.00195,-0.48828 -2.73438,0 -4.29688,2.12403 -1.5625,2.09961 -1.5625,5.83496 l 0,13.45215 -8.74023,0 0,-37.98829 8.74023,0 0,14.64844 q 1.97754,-2.39258 4.19922,-3.51562 2.22168,-1.14746 4.90723,-1.14746 4.73633,0 7.17773,2.90527 2.46582,2.90527 2.46582,8.44726 z"
         style="font-style:normal;font-variant:normal;font-weight:bold;font-stretch:normal;font-size:50px;font-family:sans-serif;-inkscape-font-specification:'sans-serif Bold';fill:#afc2cf;fill-opacity:1"
         id="path3448"
         inkscape:connector-curvature="0" />
      <path
         d="m 357.11914,417.58453 0,2.49023 -20.43457,0 q 0.31738,3.07617 2.22168,4.61426 1.9043,1.53809 5.32227,1.53809 2.75878,0 5.63964,-0.80567 2.90528,-0.83008 5.95704,-2.49023 l 0,6.73828 q -3.10059,1.17187 -6.20118,1.75781 -3.10058,0.61035 -6.20117,0.61035 -7.42187,0 -11.54785,-3.75976 -4.10156,-3.78418 -4.10156,-10.59571 0,-6.68945 4.02832,-10.52246 4.05273,-3.833 11.13281,-3.833 6.44531,0 10.30273,3.88183 3.88184,3.88184 3.88184,10.37598 z m -8.98437,-2.90528 q 0,-2.49023 -1.46485,-4.0039 -1.44043,-1.53809 -3.78418,-1.53809 -2.53906,0 -4.12597,1.44043 -1.58692,1.41602 -1.97754,4.10156 l 11.35254,0 z"
         style="font-style:normal;font-variant:normal;font-weight:bold;font-stretch:normal;font-size:50px;font-family:sans-serif;-inkscape-font-specification:'sans-serif Bold';fill:#afc2cf;fill-opacity:1"
         id="path3450"
         inkscape:connector-curvature="0" />
      <path
         d="m 384.12109,411.43218 q -1.14746,-0.5371 -2.29492,-0.78125 -1.12305,-0.26855 -2.27051,-0.26855 -3.36914,0 -5.20019,2.17285 -1.80664,2.14844 -1.80664,6.17676 l 0,12.59766 -8.74024,0 0,-27.34375 8.74024,0 0,4.49218 q 1.68457,-2.68554 3.85742,-3.90625 2.19727,-1.24511 5.24902,-1.24511 0.43946,0 0.95215,0.0488 0.5127,0.0244 1.48926,0.14649 l 0.0244,7.91015 z"
         style="font-style:normal;font-variant:normal;font-weight:bold;font-stretch:normal;font-size:50px;font-family:sans-serif;-inkscape-font-specification:'sans-serif Bold';fill:#afc2cf;fill-opacity:1"
         id="path3452"
         inkscape:connector-curvature="0" />
      <path
         d="m 138.36914,491.11968 q -3.51562,1.70899 -7.2998,2.56348 -3.78418,0.85449 -7.8125,0.85449 -9.10645,0 -14.42871,-5.07812 -5.32227,-5.10254 -5.32227,-13.81836 0,-8.81348 5.41992,-13.86719 5.41992,-5.05371 14.84375,-5.05371 3.6377,0 6.95801,0.68359 3.34473,0.6836 6.29883,2.02637 l 0,7.54395 q -3.05176,-1.7334 -6.0791,-2.58789 -3.00293,-0.8545 -6.03028,-0.8545 -5.61523,0 -8.66699,3.14942 -3.02734,3.125 -3.02734,8.95996 0,5.78613 2.92968,8.93555 2.92969,3.14941 8.3252,3.14941 1.46484,0 2.70996,-0.1709 1.26953,-0.19531 2.27051,-0.58594 l 0,-7.08007 -5.73731,0 0,-6.29883 14.64844,0 0,17.52929 z"
         style="font-style:normal;font-variant:normal;font-weight:bold;font-stretch:normal;font-size:50px;font-family:sans-serif;-inkscape-font-specification:'sans-serif Bold';fill:#afc2cf;fill-opacity:1"
         id="path3454"
         inkscape:connector-curvature="0" />
      <path
         d="m 146.23047,466.4859 8.74023,0 0,27.34375 -8.74023,0 0,-27.34375 z m 0,-10.64454 8.74023,0 0,7.12891 -8.74023,0 0,-7.12891 z"
         style="font-style:normal;font-variant:normal;font-weight:bold;font-stretch:normal;font-size:50px;font-family:sans-serif;-inkscape-font-specification:'sans-serif Bold';fill:#afc2cf;fill-opacity:1"
         id="path3456"
         inkscape:connector-curvature="0" />
      <path
         d="m 159.97559,466.4859 8.74023,0 6.81152,18.89648 6.78711,-18.89648 8.76465,0 -10.7666,27.34375 -9.59473,0 -10.74218,-27.34375 z"
         style="font-style:normal;font-variant:normal;font-weight:bold;font-stretch:normal;font-size:50px;font-family:sans-serif;-inkscape-font-specification:'sans-serif Bold';fill:#afc2cf;fill-opacity:1"
         id="path3458"
         inkscape:connector-curvature="0" />
      <path
         d="m 196.03516,466.4859 8.74023,0 0,27.34375 -8.74023,0 0,-27.34375 z m 0,-10.64454 8.74023,0 0,7.12891 -8.74023,0 0,-7.12891 z"
         style="font-style:normal;font-variant:normal;font-weight:bold;font-stretch:normal;font-size:50px;font-family:sans-serif;-inkscape-font-specification:'sans-serif Bold';fill:#afc2cf;fill-opacity:1"
         id="path3460"
         inkscape:connector-curvature="0" />
      <path
         d="m 240.71289,477.17925 0,16.6504 -8.78906,0 0,-2.70997 0,-10.03418 q 0,-3.54003 -0.1709,-4.88281 -0.14648,-1.34277 -0.53711,-1.97754 -0.5127,-0.85449 -1.3916,-1.31836 -0.87891,-0.48828 -2.00195,-0.48828 -2.73438,0 -4.29688,2.12403 -1.5625,2.09961 -1.5625,5.83496 l 0,13.45215 -8.74023,0 0,-27.34375 8.74023,0 0,4.0039 q 1.97754,-2.39258 4.19922,-3.51562 2.22168,-1.14746 4.90723,-1.14746 4.73632,0 7.17773,2.90527 2.46582,2.90527 2.46582,8.44726 z"
         style="font-style:normal;font-variant:normal;font-weight:bold;font-stretch:normal;font-size:50px;font-family:sans-serif;-inkscape-font-specification:'sans-serif Bold';fill:#afc2cf;fill-opacity:1"
         id="path3462"
         inkscape:connector-curvature="0" />
      <path
         d="m 267.4707,489.19097 q -1.80664,2.39258 -3.97949,3.51563 -2.17285,1.12305 -5.0293,1.12305 -5.00488,0 -8.27636,-3.93067 -3.27149,-3.95508 -3.27149,-10.05859 0,-6.12793 3.27149,-10.03418 3.27148,-3.93067 8.27636,-3.93067 2.85645,0 5.0293,1.12305 2.17285,1.12305 3.97949,3.54004 l 0,-4.05273 8.78907,0 0,24.58496 q 0,6.59179 -4.17481,10.05859 -4.15039,3.49121 -12.06055,3.49121 -2.56347,0 -4.95605,-0.39062 -2.39258,-0.39063 -4.80957,-1.19629 l 0,-6.81153 q 2.29492,1.31836 4.49219,1.95313 2.19726,0.65918 4.41894,0.65918 4.29688,0 6.29883,-1.87988 2.00195,-1.87989 2.00195,-5.88379 l 0,-1.87989 z m -5.76172,-17.0166 q -2.70996,0 -4.22363,2.00196 -1.51367,2.00195 -1.51367,5.66406 0,3.75976 1.46484,5.71289 1.46485,1.92871 4.27246,1.92871 2.73438,0 4.24805,-2.00195 1.51367,-2.00196 1.51367,-5.63965 0,-3.66211 -1.51367,-5.66406 -1.51367,-2.00196 -4.24805,-2.00196 z"
         style="font-style:normal;font-variant:normal;font-weight:bold;font-stretch:normal;font-size:50px;font-family:sans-serif;-inkscape-font-specification:'sans-serif Bold';fill:#afc2cf;fill-opacity:1"
         id="path3464"
         inkscape:connector-curvature="0" />
    </g>
  </g>
</svg>
